<svg width="500" height="500" viewBox="0 0 500 500" fill="none" xmlns="http://www.w3.org/2000/svg">
<g clip-path="url(#clip0_201_206)">
<path d="M452.919 222.173H339.738C339.738 222.173 350.96 191.521 368.231 191.521C385.502 191.521 390.912 212.678 390.912 212.678C390.912 212.678 402.564 201.183 412.136 201.183C421.708 201.183 430.031 216.373 430.031 216.373C430.031 216.373 443.556 208.205 452.919 222.173Z" fill="#EBEBEB"/>
<path d="M99.973 146.114H47.081C47.081 146.114 58.9 128.991 68.211 128.991C77.523 128.991 80.274 140.407 80.274 140.407C80.274 140.407 86.845 135.08 92.934 136.031C99.022 136.981 99.973 146.114 99.973 146.114Z" fill="#EBEBEB"/>
<path d="M361.515 62.8681H308.623C308.623 62.8681 320.442 45.7451 329.753 45.7451C339.064 45.7451 341.816 57.1611 341.816 57.1611C341.816 57.1611 348.387 51.8341 354.476 52.7851C360.564 53.7351 361.515 62.8681 361.515 62.8681Z" fill="#EBEBEB"/>
<path d="M196.166 113.162H93.141C93.141 113.162 107.25 81.6641 122.342 79.6951C137.435 77.7261 144.653 103.1 144.653 103.1C144.653 103.1 154.387 94.1321 162.043 94.1321C169.699 94.1321 175.605 105.944 175.605 105.944C175.605 105.944 190.916 97.8501 196.166 113.162Z" fill="#EBEBEB"/>
<path d="M179.966 287.907H76.94C76.94 287.907 91.049 256.409 106.141 254.44C121.234 252.471 128.452 277.845 128.452 277.845C128.452 277.845 138.186 268.877 145.841 268.877C153.497 268.877 159.403 280.689 159.403 280.689C159.403 280.689 174.716 272.595 179.966 287.907Z" fill="#EBEBEB"/>
<path d="M48.816 358.781L99.112 358.538L149.408 358.449L250 358.282L350.592 358.448L400.888 358.536L451.183 358.781L400.888 359.026L350.592 359.113L250 359.28L149.408 359.112L99.112 359.024L48.816 358.781Z" fill="#18181B"/>
<path d="M424.369 330.677C421.002 326.33 417.169 321.538 417.404 315.764C417.62 310.435 419.411 304.527 424.304 301.692C425.701 300.885 426.72 300.605 427.169 302.401C427.851 305.138 426.686 308.467 426.098 311.125C425.335 314.575 424.787 317.996 424.682 321.534C424.607 323.995 424.785 326.463 424.771 328.929C424.775 329.238 424.77 329.548 424.757 329.86C424.757 329.975 424.757 330.096 424.75 330.215C424.776 330.259 424.808 330.303 424.838 330.345C424.896 330.433 424.903 330.524 424.874 330.598C424.863 330.63 424.847 330.661 424.823 330.687C424.711 330.808 424.5 330.848 424.369 330.677Z" fill="#F7B750"/>
<path d="M424.821 330.686C422.068 326.718 418.845 322.614 419.249 317.563C419.438 315.227 420.143 312.889 421.054 310.739C421.466 309.755 422.687 306.814 423.968 306.746C426.286 306.626 423.19 315.943 423.037 317.035C422.471 321.131 423.282 325.148 424.77 328.929C424.774 329.238 424.769 329.548 424.756 329.86C423.605 327.226 422.818 324.429 422.575 321.561C422.233 317.583 423.573 314.27 424.298 310.444C424.457 309.616 425.102 306.999 423.68 307.21C422.743 307.349 421.533 310.211 421.275 310.826C420.416 312.867 419.754 315.084 419.547 317.293C419.065 322.384 422.192 326.528 424.873 330.596C424.862 330.629 424.845 330.66 424.821 330.686Z" fill="white"/>
<path d="M423.418 335.096C423.219 335.18 423.024 335.271 422.824 335.36C422.818 335.365 422.812 335.364 422.804 335.365C422.749 335.39 422.695 335.38 422.655 335.351C422.559 335.29 422.519 335.146 422.576 335.052C422.593 335.016 422.632 334.989 422.682 334.972C422.709 334.963 422.736 334.953 422.768 334.944C422.83 334.924 422.892 334.903 422.955 334.883C422.956 334.878 422.957 334.872 422.961 334.864C422.975 334.85 422.989 334.83 423.003 334.815C425.385 331.902 428.232 329.386 430.587 326.428C432.833 323.606 434.886 320.629 437.351 317.987C438.904 316.321 447.097 308.513 448.848 313.338C449.623 315.477 447.926 318.546 446.873 320.327C445.46 322.715 443.555 324.775 441.397 326.508C436.058 330.793 429.547 332.392 423.418 335.096Z" fill="#F7B750"/>
<path d="M435.673 328.227C437.782 326.783 439.76 325.128 441.384 323.142C441.953 322.46 444.673 319.181 443.774 318.107C443.198 317.409 441.664 318.324 441.142 318.605C438.932 319.807 437.337 321.951 435.65 323.763C432.215 327.462 428.48 330.832 424.555 333.981C424.274 334.13 423.982 334.278 423.706 334.434C423.467 334.554 423.237 334.687 423.003 334.814C422.922 334.862 422.843 334.898 422.762 334.946C422.702 334.979 422.641 335.012 422.574 335.05C422.516 335.144 422.559 335.292 422.653 335.35C422.834 335.251 423.019 335.16 423.201 335.061C423.068 335.167 422.936 335.262 422.803 335.368C422.81 335.363 422.815 335.37 422.822 335.365C422.987 335.288 423.145 335.217 423.303 335.145C423.343 335.127 423.375 335.114 423.415 335.096C423.643 334.932 423.866 334.761 424.082 334.594C427.999 332.552 432.027 330.713 435.673 328.227ZM425.51 333.483C427.816 331.656 430.025 329.71 432.146 327.67C433.86 326.027 435.489 324.31 437.081 322.556C437.982 321.562 438.877 320.561 439.935 319.726C440.74 319.094 443.894 317.003 443.132 319.955C442.57 322.091 439.831 324.482 438.236 325.838C436.47 327.35 434.523 328.625 432.508 329.792C430.223 331.109 427.854 332.278 425.51 333.483Z" fill="white"/>
<path d="M412.907 346.303L412.905 346.3C412.835 346.235 412.774 346.16 412.767 346.15C410.039 341.924 405.747 336.766 406.004 331.433C406.195 327.493 408.361 322.198 412.273 320.585C416.688 318.776 415.828 327.115 415.707 329.246C415.393 334.675 413.308 346.14 413.174 346.235C413.159 346.269 413.153 346.305 413.138 346.339C413.134 346.345 413.131 346.352 413.13 346.356C413.091 346.44 412.993 346.38 412.907 346.303Z" fill="#F7B750"/>
<path d="M413.127 346.359C413.103 346.019 413.079 345.68 413.062 345.335C412.819 341.439 412.743 337.527 412.866 333.629C412.892 332.645 413.675 325.114 411.719 325.472C410.535 325.694 409.827 328.501 409.567 329.423C409.108 331.075 408.924 332.803 409.03 334.51C409.291 338.446 411.298 342.007 412.695 345.671C412.772 345.836 412.835 346.011 412.898 346.186C412.897 346.229 412.898 346.259 412.904 346.297L412.909 346.304C412.995 346.38 413.089 346.438 413.127 346.359ZM409.645 336.619C409.296 334.908 409.251 333.125 409.491 331.389C409.648 330.237 410.353 326.068 411.818 325.99C412.594 325.946 412.514 326.433 412.664 327.312C412.733 327.714 412.769 328.128 412.788 328.535C412.831 329.543 412.758 330.55 412.711 331.549C412.618 333.316 412.57 335.071 412.562 336.84C412.542 339.729 412.645 342.614 412.84 345.496C411.833 342.504 410.27 339.705 409.645 336.619Z" fill="white"/>
<path d="M426.668 347.708C421.254 350.027 415.202 350.608 409.431 349.502C409.391 349.492 409.357 349.478 409.332 349.457C409.247 349.398 409.226 349.288 409.259 349.193C409.289 349.1 409.377 349.022 409.508 349.044C409.625 349.067 409.745 349.081 409.865 349.101C415.895 345.787 421.943 342.566 427.914 339.136C429.319 338.327 438.397 333.353 438.883 336.892C439.182 339.077 435.842 341.642 434.403 342.882C432.096 344.875 429.468 346.506 426.668 347.708Z" fill="#F7B750"/>
<path d="M433.036 340.88C433.4 340.409 433.703 339.823 433.005 339.539C431.666 338.991 427.462 341.418 426.258 342.033C421.292 344.567 416.231 346.603 411.078 348.674C410.647 348.848 410.209 349.027 409.771 349.205C409.601 349.201 409.431 349.198 409.26 349.195C409.226 349.293 409.251 349.401 409.333 349.457C409.378 349.446 409.424 349.423 409.469 349.412C409.694 349.418 409.93 349.426 410.157 349.42C410.164 349.415 410.164 349.415 410.164 349.415C413.813 349.455 417.503 348.867 420.937 347.791C423.144 347.095 425.259 346.171 427.275 345.036C429.128 343.995 431.729 342.607 433.036 340.88ZM410.45 349.187C410.339 349.193 410.23 349.188 410.119 349.194C410.306 349.133 410.486 349.077 410.668 349.009C414.742 347.642 418.775 346.072 422.641 344.182C424.604 343.221 426.501 342.139 428.495 341.25C429.337 340.875 431.691 339.727 432.468 340.092C433.229 340.436 432.419 341.03 431.993 341.431C431.684 341.716 431.069 342.159 430.756 342.395C424.77 346.848 417.757 349.061 410.45 349.187Z" fill="white"/>
<path d="M397.962 358.781L397.375 357.965C398.084 357.434 398.793 356.903 399.49 356.37C402.317 354.189 405.13 351.987 407.902 349.73C409.485 348.444 411.039 347.148 412.539 345.806C412.589 345.759 412.64 345.712 412.695 345.673C412.811 345.558 412.933 345.449 413.061 345.336C413.189 345.223 413.32 345.098 413.45 344.972C416.782 341.903 419.793 338.562 422.083 334.511C422.837 333.182 423.528 331.824 424.193 330.443C424.257 330.313 424.316 330.176 424.38 330.046C424.398 330.012 424.415 329.979 424.428 329.938C424.499 329.803 424.558 329.666 424.624 329.524C424.672 329.416 424.719 329.32 424.766 329.212C426.727 324.937 428.348 320.496 430.07 316.152C430.56 314.907 431.056 313.658 431.563 312.423C431.589 312.342 431.619 312.267 431.654 312.2C431.681 312.107 431.721 312.016 431.76 311.924C433.968 306.432 436.24 300.956 438.302 295.422C438.373 295.214 438.678 295.361 438.603 295.563C437.26 299.268 436.004 303.005 434.723 306.738C434.556 307.235 434.378 307.731 434.211 308.229C433.873 309.217 433.536 310.194 433.193 311.175C432.507 313.138 431.81 315.087 431.078 317.03C429.034 322.488 427.041 328.088 424.333 333.279C424.13 333.667 423.921 334.048 423.705 334.434C423.574 334.675 423.443 334.916 423.302 335.143C423.154 335.418 422.993 335.691 422.833 335.963C419.981 340.764 416.164 344.486 411.962 347.951C411.673 348.191 411.376 348.435 411.075 348.673C410.942 348.78 410.807 348.898 410.666 349.009C410.59 349.064 410.519 349.125 410.448 349.187C410.351 349.257 410.259 349.333 410.16 349.415C410.16 349.415 410.16 349.415 410.153 349.42C410.084 349.47 410.013 349.532 409.937 349.586C409.684 349.789 409.426 349.985 409.167 350.193C406.354 352.395 403.512 354.555 400.667 356.697C399.765 357.379 398.864 358.08 397.962 358.781Z" fill="#F7B750"/>
<path d="M432.926 296.678C434.322 292.285 438.457 284.967 444.046 285.94C446.294 286.329 447.749 288.076 447.747 290.357C447.74 293.001 445.925 295.49 444.362 297.469C440.195 302.757 435.56 307.607 431.768 313.195C431.761 313.251 431.443 313.67 431.363 313.797C431.284 313.913 431.117 313.774 431.192 313.661C431.314 313.477 431.439 313.296 431.561 313.113C431.582 307.698 431.269 301.887 432.926 296.678Z" fill="#F7B750"/>
<path d="M431.779 313.232C431.792 313.191 431.817 313.153 431.829 313.112C432.525 311.425 433.326 309.81 434.212 308.228C436.059 304.947 438.257 301.876 440.505 298.832C441.373 297.662 445.737 292.088 442.12 291.699C440.597 291.536 439.043 292.833 438.003 293.78C436.322 295.294 435.032 297.177 434.065 299.216C432.151 303.279 431.718 307.767 431.654 312.199C431.645 312.405 431.642 312.606 431.64 312.807C431.612 312.87 431.59 312.927 431.561 312.99C431.543 313.024 431.524 313.069 431.511 313.11C431.5 313.139 431.497 313.163 431.504 313.188C431.519 313.282 431.625 313.342 431.704 313.306C431.738 313.293 431.766 313.273 431.779 313.232ZM431.76 311.923C431.923 308.27 432.291 304.552 433.544 301.101C434.196 299.31 435.089 297.576 436.247 296.05C436.76 295.377 437.335 294.732 437.955 294.15C438.41 293.718 438.912 293.293 439.439 292.946C440.598 292.165 442.174 291.744 442.774 292.33C443.523 293.05 443.238 293.675 442.677 294.907C442.493 295.323 442.269 295.725 442.035 296.114C441.448 297.092 440.767 298.013 440.088 298.921C438.963 300.434 437.849 301.949 436.789 303.509C436.068 304.563 435.374 305.64 434.725 306.736C433.599 308.627 432.586 310.573 431.729 312.606C431.734 312.383 431.747 312.153 431.76 311.923Z" fill="white"/>
<path d="M55.436 323.664C58.154 326.166 60.7 328.848 63.211 331.554C64.638 333.086 66.044 334.638 67.478 336.173C69.053 337.86 70.537 339.748 72.751 340.577C72.756 340.575 72.759 340.568 72.762 340.57C72.793 340.563 73.031 340.729 73.033 340.734C73.042 340.75 73.048 340.764 73.05 340.777C73.106 340.952 72.936 341.189 72.706 341.114C72.654 341.096 72.607 341.075 72.559 341.058C72.539 341.058 72.518 341.06 72.499 341.06C71.851 341.071 70.893 340.691 70.492 340.597C68.674 340.176 66.88 339.626 65.121 338.996C61.519 337.707 58.059 336.015 54.885 333.869C52.046 331.951 49.451 329.673 47.218 327.078C45.431 324.997 42.741 321.932 42.238 319.132C41.787 316.597 45.058 317.096 46.575 317.542C50.013 318.567 52.863 321.297 55.436 323.664Z" fill="#F7B750"/>
<path d="M47.1979 321.81C46.4199 322.898 49.3679 326.199 50.6079 327.672C52.5579 329.998 54.8089 332.047 57.2609 333.832C61.6729 337.049 66.664 339.308 71.87 340.873C72.076 340.936 72.2889 341.005 72.4999 341.061C72.5189 341.064 72.5429 341.06 72.5609 341.063C72.6049 341.074 72.652 341.097 72.704 341.112C72.931 341.19 73.111 340.953 73.051 340.773C72.634 340.58 72.2339 340.377 71.8369 340.157C71.4749 339.961 71.1239 339.762 70.7839 339.55C67.0029 337.297 63.7179 334.174 60.4989 331.192C56.7169 327.694 48.2349 320.373 47.1979 321.81ZM71.3399 340.252C71.8649 340.543 72.3969 340.809 72.9329 341.056C72.5069 340.919 72.081 340.782 71.661 340.638C67.116 339.116 62.7149 337.174 58.7269 334.491C56.4879 332.995 54.3939 331.267 52.5139 329.327C51.5029 328.28 50.5579 327.185 49.6889 326.03C49.3269 325.541 46.9539 322.65 47.5799 322.082C48.0209 321.685 50.7469 323.467 50.8069 323.499C51.3529 323.848 51.8869 324.229 52.4149 324.618C53.4999 325.415 54.5399 326.273 55.5639 327.141C57.7779 329.038 59.8909 331.062 62.0439 333.03C64.9099 335.655 67.9169 338.361 71.3399 340.252Z" fill="white"/>
<path d="M75.918 312.425C78.386 317.207 78.964 322.702 79.038 328.004C79.075 330.845 78.98 333.686 78.951 336.523C78.925 338.9 78.728 341.657 79.219 344.126C79.237 344.233 79.259 344.346 79.287 344.457C79.445 345.161 79.665 345.84 79.963 346.477C79.984 346.53 79.98 346.576 79.956 346.613C80 346.676 80.043 346.734 80.081 346.802C80.11 346.846 80.056 346.906 80.01 346.867C79.952 346.818 79.891 346.756 79.832 346.707C79.827 346.701 79.823 346.699 79.818 346.693C79.753 346.697 79.692 346.671 79.66 346.597C79.646 346.575 79.634 346.546 79.623 346.517C79.566 346.465 79.506 346.411 79.45 346.355C75.302 342.53 72.979 336.057 71.398 330.858C69.822 325.685 69.094 320.121 70.463 314.817C70.81 313.484 71.399 310.316 73.01 309.861C74.482 309.447 75.397 311.41 75.918 312.425Z" fill="#F7B750"/>
<path d="M73.731 315.525C72.103 315.796 72.449 320.262 72.496 321.353C72.631 324.664 73.283 327.926 73.984 331.149C75.151 336.444 76.678 341.514 79.386 346.162L79.393 346.167C79.41 346.231 79.431 346.289 79.448 346.353C79.508 346.417 79.565 346.468 79.622 346.519C79.633 346.548 79.644 346.576 79.66 346.598C79.691 346.672 79.756 346.698 79.822 346.693C79.801 346.605 79.776 346.524 79.762 346.441C79.58 345.787 79.427 345.123 79.286 344.456C79.261 344.344 79.237 344.232 79.219 344.125C78.276 339.514 78.112 334.748 77.768 330.031C77.523 326.756 77.139 323.456 76.288 320.283C76.072 319.47 75.098 315.297 73.731 315.525ZM75.193 317.888C77.417 323.038 77.354 329.16 77.725 334.66C77.965 338.381 78.323 342.113 79.267 345.699C76.984 341.438 75.598 336.668 74.543 332.008C73.931 329.32 73.37 326.604 73.067 323.864C72.895 322.391 72.772 320.879 72.823 319.386C72.845 318.711 72.931 317.39 73.161 316.717C73.719 315.117 74.808 317.006 75.193 317.888Z" fill="white"/>
<path d="M88.786 353.742C88.829 353.828 88.812 353.94 88.755 354.027C88.794 354.028 88.827 354.026 88.863 354.026C88.919 354.026 88.949 354.067 88.951 354.108C88.96 354.152 88.937 354.197 88.881 354.205C82.487 355.211 75.381 355.506 69.09 353.787C66.437 353.062 63.883 351.962 61.597 350.422C60.036 349.368 56.893 347.244 56.712 345.135C56.357 340.893 67.596 345.295 69.287 345.963C72.372 347.18 75.345 348.655 78.404 349.932C81.754 351.327 85.198 352.476 88.637 353.626C88.71 353.649 88.76 353.691 88.786 353.742Z" fill="#F7B750"/>
<path d="M88.784 353.74C88.437 353.712 88.096 353.677 87.752 353.631C82.102 353.026 76.886 351.548 71.563 349.24C68.997 348.128 66.381 346.896 63.651 346.233C62.971 346.071 60.47 345.278 60.871 346.884C61.083 347.716 65.196 350.091 66.315 350.619C68.878 351.823 71.622 352.613 74.387 353.154C78.995 354.061 83.82 354.401 88.537 354.129C88.677 354.124 88.816 354.119 88.949 354.109C88.948 354.066 88.916 354.023 88.862 354.026C88.831 354.025 88.796 354.031 88.758 354.025C88.811 353.936 88.829 353.824 88.784 353.74ZM76.772 353.245C74.006 352.838 71.241 352.223 68.612 351.244C67.571 350.855 66.543 350.403 65.548 349.891C64.772 349.483 63.994 349.063 63.292 348.55C61.563 347.293 61.211 346.832 61.357 346.497C61.451 346.292 61.816 346.176 63.222 346.407C64.113 346.552 65.025 346.858 65.865 347.177C67.084 347.64 68.284 348.142 69.482 348.664C71.876 349.695 74.263 350.763 76.725 351.612C80.237 352.835 83.943 353.642 87.667 353.896C84.028 353.962 80.403 353.789 76.772 353.245Z" fill="white"/>
<path d="M88.121 335.377C89.711 337.047 90.693 339.234 91.423 341.397C92.883 345.75 93.395 350.349 94.544 354.787C94.716 355.449 94.901 356.109 95.107 356.766C95.132 356.836 95.566 357.564 95.517 357.523C95.505 357.514 95.295 357.3 94.945 356.931L94.943 356.926C93.214 355.108 88.063 349.525 86.091 345.742C84.879 343.416 83.729 340.898 83.12 338.335C82.837 337.108 82.317 334.329 83.537 333.388C84.851 332.375 87.292 334.503 88.121 335.377Z" fill="#F7B750"/>
<path d="M85.501 336.451C83.788 337.163 87.328 344.689 87.773 345.677C89.426 349.34 91.54 352.768 94.079 355.881C94.358 356.238 94.647 356.58 94.943 356.928C95.297 357.296 95.498 357.513 95.512 357.523C95.527 357.502 95.135 356.835 95.104 356.76C95.068 356.65 95.036 356.533 94.999 356.423C94.835 355.876 94.683 355.328 94.544 354.789C93.421 351.819 92.349 348.823 91.162 345.869C90.307 343.74 89.352 341.664 88.163 339.694C87.896 339.252 86.249 336.138 85.501 336.451ZM86.902 338.007C90.733 343.5 92.12 350.114 94.648 356.214C94.69 356.317 94.729 356.408 94.771 356.511C94.669 356.375 94.555 356.241 94.453 356.106C92.416 353.477 90.617 350.693 89.111 347.732C88.196 345.936 87.392 344.074 86.697 342.174C86.335 341.172 85.853 340.073 85.63 339.024C85.527 338.553 85.298 337.248 85.613 337.085C86.056 336.848 86.646 337.647 86.902 338.007Z" fill="white"/>
<path d="M54.942 292.211C60.97 302.274 57.9 315.184 63.238 325.546C63.249 325.567 63.258 325.582 63.267 325.598C63.429 325.914 63.6 326.227 63.78 326.538C63.865 326.69 63.744 326.844 63.618 326.858C63.56 326.865 63.502 326.84 63.461 326.771C63.416 326.7 63.374 326.622 63.335 326.546C58.557 322.108 54.684 316.077 51.841 310.247C49.371 305.174 47.741 299.48 48.585 293.811C48.79 292.413 49.108 289.625 50.796 289.1C52.584 288.54 54.201 290.969 54.942 292.211Z" fill="#F7B750"/>
<path d="M52.868 295.908C52.161 296.135 52.072 297.182 51.99 297.751C51.774 299.167 51.773 300.632 51.899 302.052C52.143 304.991 52.991 307.848 54.086 310.578C55.936 315.167 58.237 319.828 61.212 323.882C61.884 324.802 62.588 325.693 63.34 326.545C63.431 326.652 63.527 326.752 63.618 326.859C63.744 326.844 63.865 326.69 63.785 326.538C63.601 326.239 63.448 325.941 63.28 325.633C63.264 325.611 63.253 325.583 63.236 325.549C62.037 323.55 60.991 321.484 60.189 319.266C58.951 315.857 58.291 312.255 57.503 308.729C57.198 307.338 55.294 295.108 52.868 295.908ZM54.456 297.964C55.687 300.593 56.081 303.586 56.707 306.4C57.345 309.243 57.946 312.092 58.624 314.922C59.161 317.159 59.878 319.378 60.793 321.509C61.546 323.283 62.454 325 63.515 326.607C62.308 325.147 61.212 323.589 60.201 321.986C60.185 321.964 60.176 321.947 60.172 321.924C58.377 319.06 56.856 316.003 55.454 312.97C55.436 312.936 55.416 312.891 55.399 312.857C54.163 310.162 53.087 307.362 52.528 304.438C52.228 302.852 52.056 301.232 52.123 299.615C52.209 297.781 52.465 296.31 53.09 296.286C53.516 296.276 54.101 297.186 54.456 297.964Z" fill="white"/>
<path d="M55.6899 312.845C57.3389 315.752 59.0579 318.635 60.7929 321.509C61.6039 322.864 62.421 324.212 63.235 325.548C63.253 325.582 63.2639 325.611 63.2789 325.632C63.5729 326.114 63.869 326.608 64.163 327.091C66.823 331.484 69.453 336.109 72.802 340.021C74.553 342.068 76.5819 343.917 78.7239 345.637C78.9479 345.807 79.167 345.985 79.385 346.162L79.3919 346.167C79.5169 346.256 79.636 346.352 79.761 346.442C79.825 346.498 79.8949 346.548 79.9639 346.597C81.8339 348.038 83.78 349.388 85.675 350.691C88.322 352.51 91.0719 354.141 93.8349 355.739C93.9109 355.794 93.993 355.841 94.079 355.882C94.202 355.959 94.329 356.03 94.452 356.107C94.519 356.145 94.58 356.177 94.647 356.215C94.763 356.288 94.883 356.353 94.999 356.425C95.89 356.936 96.776 357.454 97.664 357.985L97.094 358.782C94.209 357.515 91.3889 355.939 88.7009 354.237C88.6409 354.204 88.592 354.17 88.537 354.13C88.273 353.972 88.0069 353.803 87.7519 353.632C87.4249 353.43 87.1109 353.226 86.7939 353.01C86.0259 352.503 85.27 351.993 84.525 351.482C80.202 348.507 75.789 345.278 72.277 341.344C72.179 341.232 72.0879 341.125 71.9899 341.013C71.9459 340.971 71.908 340.923 71.869 340.874C71.796 340.801 71.7269 340.72 71.6589 340.64L71.3379 340.254C71.1469 340.023 70.9609 339.786 70.7819 339.553C70.7279 339.483 70.673 339.412 70.619 339.342C67.75 335.637 65.448 331.373 63.143 327.348C62.72 326.606 62.305 325.87 61.894 325.126C61.666 324.712 61.4389 324.298 61.2109 323.884C60.8749 323.256 60.536 322.616 60.2 321.988C60.184 321.966 60.175 321.949 60.171 321.926C58.583 318.948 57.0579 315.941 55.4529 312.972C55.3829 312.835 55.6119 312.706 55.6899 312.845Z" fill="#F7B750"/>
<path d="M250 448.205C355.373 448.205 440.794 433.774 440.794 415.972C440.794 398.17 355.373 383.739 250 383.739C144.627 383.739 59.206 398.17 59.206 415.972C59.206 433.774 144.627 448.205 250 448.205Z" fill="#EBEBEB"/>
<path d="M175.841 137.552C169.631 142.761 139.104 180.21 93.668 168.141C93.668 168.141 101.477 200.443 116.918 200.443C132.359 200.443 141.588 177.015 141.588 177.015C141.588 177.015 143.274 181.097 147.267 180.742C155.403 180.019 169.807 156.516 175.84 143.293V137.552H175.841Z" fill="#F7B750"/>
<path opacity="0.1" d="M175.841 137.552C169.631 142.761 139.104 180.21 93.668 168.141C93.668 168.141 101.477 200.443 116.918 200.443C132.359 200.443 141.588 177.015 141.588 177.015C141.588 177.015 143.274 181.097 147.267 180.742C155.403 180.019 169.807 156.516 175.84 143.293V137.552H175.841Z" fill="black"/>
<path opacity="0.1" d="M175.841 137.552V141.32C171.956 146.903 152.774 173.236 134.073 177.783C113.13 182.875 93.671 168.144 93.671 168.144C139.101 180.206 169.629 142.761 175.841 137.552Z" fill="black"/>
<path d="M324.159 137.552C330.369 142.761 360.896 180.21 406.332 168.141C406.332 168.141 398.523 200.443 383.082 200.443C367.641 200.443 358.412 177.015 358.412 177.015C358.412 177.015 356.726 181.097 352.733 180.742C344.597 180.019 330.193 156.516 324.16 143.293V137.552H324.159Z" fill="#F7B750"/>
<path opacity="0.1" d="M324.159 137.552C330.369 142.761 360.896 180.21 406.332 168.141C406.332 168.141 398.523 200.443 383.082 200.443C367.641 200.443 358.412 177.015 358.412 177.015C358.412 177.015 356.726 181.097 352.733 180.742C344.597 180.019 330.193 156.516 324.16 143.293V137.552H324.159Z" fill="black"/>
<path opacity="0.1" d="M324.159 137.552V141.32C328.044 146.903 347.226 173.236 365.927 177.783C386.87 182.875 406.329 168.144 406.329 168.144C360.899 180.206 330.371 142.761 324.159 137.552Z" fill="black"/>
<path d="M378.257 415.372C372.578 414.668 294.838 389.465 293.418 389.465C291.998 389.465 271.888 391.237 249.995 391.237C228.113 391.237 207.992 389.465 206.572 389.465C205.152 389.465 127.422 414.667 121.744 415.372C116.055 416.087 64.946 346.512 67.433 344.025C69.91 341.538 88.728 345.445 90.852 345.092C92.987 344.74 129.194 323.797 129.546 322.014C129.898 320.242 135.577 275.869 141.619 241.082C147.65 206.295 160.544 154.119 175.691 137.552C190.838 120.985 228.23 111.528 249.995 111.528C271.771 111.528 309.163 120.985 324.309 137.552C339.445 154.119 352.35 206.294 358.381 241.082C364.412 275.869 370.091 320.243 370.454 322.014C370.806 323.797 407.014 344.74 409.138 345.092C411.273 345.444 430.081 341.537 432.568 344.025C435.055 346.512 383.936 416.087 378.257 415.372Z" fill="#F7B750"/>
<path d="M225.211 114.933C226.735 114.196 233.799 106.575 243.373 103.972C246.681 103.073 240.585 110.013 240.585 110.013C240.585 110.013 254.778 101.473 260.5 99.406C270.048 95.958 274.789 95.234 274.789 96.814C274.789 100.346 259.908 106.989 257.408 109.827C257.408 109.827 266.238 107.689 269.212 109.548C272.186 111.407 261.402 113.285 261.402 113.285L225.211 114.933Z" fill="#F7B750"/>
<path opacity="0.1" d="M223.185 199.189C224.272 204.25 224.366 209.531 223.676 214.714C222.975 219.892 221.369 225.038 218.576 229.566C217.168 231.813 215.511 233.914 213.6 235.761C211.646 237.561 209.504 239.144 207.195 240.426C202.537 242.917 197.387 244.284 192.237 244.654C197.262 243.46 202.105 241.701 206.408 239.078C208.514 237.699 210.51 236.178 212.276 234.407C214.032 232.631 215.573 230.652 216.873 228.519C219.535 224.279 221.153 219.424 222.142 214.461C223.095 209.478 223.448 204.343 223.185 199.189Z" fill="black"/>
<path d="M192.742 173.753C173.201 173.753 163.373 188.751 163.373 206.271C163.373 220.461 174.971 234.951 193.725 234.951C212.479 234.951 224.077 217.922 224.077 204.597C224.077 191.273 213.96 173.753 192.742 173.753Z" fill="white"/>
<path d="M192.955 180.399C177.658 180.399 169.965 192.139 169.965 205.854C169.965 216.962 179.044 228.305 193.725 228.305C208.406 228.305 217.485 214.974 217.485 204.544C217.485 194.114 209.565 180.399 192.955 180.399Z" fill="#18181B"/>
<path d="M200.037 180.644C193.091 180.644 189.597 185.975 189.597 192.203C189.597 197.247 193.72 202.398 200.386 202.398C207.053 202.398 211.175 196.344 211.175 191.608C211.176 186.872 207.58 180.644 200.037 180.644Z" fill="white"/>
<path d="M175.36 170.155C182.062 171.389 188.751 172.679 195.438 173.982C202.124 175.291 208.822 176.539 215.494 177.909L215.096 179.494L178.1 169.29L178.684 166.819C190.818 169.002 202.962 171.127 215.085 173.37L214.429 176.205L195.96 171.1L177.511 165.928L178.131 163.069L197.871 166.235L217.601 169.46L217.088 171.959L178.841 161.746L179.137 160.156C185.758 160.998 192.363 161.971 198.976 162.872C205.589 163.782 212.199 164.706 218.804 165.686C212.154 165.091 205.511 164.44 198.869 163.775C192.228 163.101 185.579 162.499 178.946 161.766L179.242 160.176L217.719 169.485L217.206 171.984L197.437 169.004L177.677 165.965L178.297 163.106L196.763 168.219L215.21 173.399L214.554 176.234C202.432 173.989 190.332 171.625 178.221 169.318L178.805 166.846L215.55 177.922L215.152 179.507C208.503 178.026 201.881 176.424 195.245 174.881C188.611 173.333 181.979 171.772 175.36 170.155Z" fill="#18181B"/>
<path d="M249.02 131.186C229.479 131.186 219.651 146.183 219.651 163.704C219.651 177.894 231.249 192.384 250.003 192.384C268.757 192.384 280.355 175.355 280.355 162.03C280.356 148.706 270.238 131.186 249.02 131.186Z" fill="white"/>
<path d="M249.234 137.832C233.937 137.832 226.244 149.572 226.244 163.287C226.244 174.395 235.323 185.738 250.004 185.738C264.685 185.738 273.764 172.407 273.764 161.977C273.764 151.547 265.843 137.832 249.234 137.832Z" fill="#18181B"/>
<path d="M249.654 136.709C242.708 136.709 239.214 142.04 239.214 148.268C239.214 153.312 243.337 158.463 250.003 158.463C256.67 158.463 260.792 152.409 260.792 147.673C260.793 142.937 257.196 136.709 249.654 136.709Z" fill="white"/>
<path d="M229.002 135.91C235.814 135.756 242.626 135.66 249.438 135.576C256.25 135.498 263.062 135.359 269.874 135.345L269.807 136.977L231.509 134.506L231.578 131.967C243.902 131.638 256.225 131.25 268.55 130.984L268.484 133.893L249.364 132.649L230.249 131.335L230.275 128.41L250.246 127.498L270.22 126.645L270.226 129.196L230.701 126.969L230.667 125.352C237.321 124.831 243.986 124.441 250.644 123.979C257.303 123.526 263.964 123.087 270.629 122.704C263.997 123.473 257.36 124.186 250.722 124.884C244.083 125.574 237.45 126.336 230.806 126.966L230.772 125.349L270.338 126.644L270.343 129.195L250.381 130.295L230.416 131.336L230.443 128.411L249.562 129.664L268.677 130.987L268.611 133.897C256.286 134.162 243.958 134.307 231.631 134.51L231.701 131.971L269.93 135.348L269.863 136.98C263.052 136.881 256.242 136.658 249.432 136.496C242.623 136.328 235.812 136.148 229.002 135.91Z" fill="#18181B"/>
<path opacity="0.1" d="M276.993 199.189C276.729 204.343 277.083 209.478 278.035 214.46C279.024 219.423 280.642 224.278 283.304 228.518C284.604 230.65 286.145 232.63 287.901 234.406C289.667 236.177 291.663 237.698 293.769 239.077C298.072 241.699 302.914 243.459 307.939 244.653C302.79 244.283 297.639 242.916 292.981 240.425C290.673 239.143 288.53 237.56 286.576 235.76C284.665 233.913 283.008 231.812 281.6 229.565C278.808 225.037 277.201 219.891 276.5 214.713C275.812 209.531 275.906 204.251 276.993 199.189Z" fill="black"/>
<path d="M307.436 173.753C326.977 173.753 336.805 188.751 336.805 206.271C336.805 220.461 325.207 234.951 306.453 234.951C287.699 234.951 276.101 217.922 276.101 204.597C276.1 191.273 286.218 173.753 307.436 173.753Z" fill="white"/>
<path d="M307.222 180.399C322.519 180.399 330.212 192.139 330.212 205.854C330.212 216.962 321.133 228.305 306.452 228.305C291.771 228.305 282.692 214.974 282.692 204.544C282.692 194.114 290.613 180.399 307.222 180.399Z" fill="#18181B"/>
<path d="M300.14 180.644C307.086 180.644 310.58 185.975 310.58 192.203C310.58 197.247 306.457 202.398 299.79 202.398C293.123 202.398 289.001 196.344 289.001 191.608C289.001 186.872 292.598 180.644 300.14 180.644Z" fill="white"/>
<path d="M324.64 170.155C318.021 171.772 311.389 173.333 304.755 174.881C298.12 176.423 291.497 178.026 284.848 179.507L284.45 177.922L321.195 166.846L321.779 169.318C309.668 171.624 297.568 173.988 285.446 176.234L284.79 173.399L303.237 168.219L321.703 163.106L322.324 165.965L302.564 169.004L282.795 171.984L282.282 169.485L320.759 160.176L321.055 161.766C314.421 162.499 307.772 163.101 301.132 163.775C294.49 164.44 287.847 165.091 281.197 165.686C287.801 164.707 294.412 163.782 301.025 162.872C307.638 161.971 314.243 160.998 320.864 160.156L321.16 161.746L282.913 171.959L282.4 169.46L302.13 166.235L321.87 163.069L322.49 165.928L304.04 171.1L285.572 176.205L284.916 173.37C297.038 171.126 309.183 169.002 321.316 166.819L321.9 169.29L284.903 179.494L284.505 177.909C291.177 176.539 297.876 175.291 304.561 173.982C311.249 172.679 317.938 171.389 324.64 170.155Z" fill="#18181B"/>
<path d="M281.516 247.921C280.064 250.953 262.481 246.812 250.006 246.812C236.747 246.812 219.937 250.953 218.485 247.921C217.044 244.878 225.007 214.836 250.006 214.836C274.994 214.836 282.957 244.878 281.516 247.921Z" fill="#18181B"/>
<path d="M271.493 248.671C265.099 248.041 256.795 246.814 250.006 246.814C242.897 246.814 234.752 248.01 228.519 248.639C236.386 233.492 244.605 232.211 250.006 238.264C255.407 232.212 263.626 233.492 271.493 248.671Z" fill="white"/>
<path d="M235.478 247.86C231.966 248.266 228.657 248.671 225.914 248.874L228.636 238.616L232.607 237.912L235.478 247.86Z" fill="white"/>
<path d="M276.168 249.013C273.307 248.917 269.561 248.479 265.526 248.02L269.347 239.566L274.428 239.918L276.168 249.013Z" fill="white"/>
<path d="M316.286 273.94C314.567 265.25 311.566 257.507 307.293 250.724C303.01 243.951 297.581 238.334 290.985 233.885C286.171 230.634 280.929 228.258 275.261 226.757C274.823 227.653 274.209 228.497 273.385 228.831C271.353 229.654 269.738 227.977 269.738 227.977C269.738 227.977 268.894 229.957 267.258 230.572C265.622 231.187 264.257 229.457 264.257 229.457C264.257 229.457 262.548 233.698 259.349 233.844C256.15 233.98 254.514 228.582 254.514 228.582C254.514 228.582 253.285 231.25 251.336 231.25C249.377 231.25 246.428 227.509 246.428 227.509C246.428 227.509 246.418 227.249 246.407 226.842C245.938 226.977 245.48 227.123 245.021 227.269C237.508 229.697 230.756 233.552 224.743 238.856C218.73 244.16 213.666 250.735 209.571 258.592C205.476 266.449 202.714 275.306 201.297 285.143C199.88 294.99 200.036 304.264 201.756 312.955C203.465 321.656 206.466 329.388 210.738 336.171C215.021 342.955 220.418 348.519 226.952 352.885C233.475 357.251 240.915 360.033 249.262 361.232C257.463 362.409 265.351 361.836 272.916 359.502C280.481 357.157 287.275 353.344 293.288 348.04C299.311 342.746 304.365 336.161 308.46 328.304C312.566 320.447 315.317 311.59 316.734 301.753C318.151 291.905 318.005 282.641 316.286 273.94ZM286.536 297.407C285.671 303.378 284.223 308.723 282.17 313.444C280.117 318.175 277.606 322.155 274.636 325.375C271.656 328.605 268.353 330.95 264.716 332.398C261.079 333.857 257.255 334.294 253.222 333.721C249.044 333.117 245.417 331.606 242.343 329.178C239.269 326.761 236.758 323.582 234.809 319.654C232.86 315.715 231.579 311.193 230.943 306.076C230.307 300.96 230.422 295.426 231.276 289.456C232.13 283.496 233.589 278.108 235.653 273.305C237.716 268.501 240.238 264.489 243.208 261.259C246.188 258.039 249.492 255.695 253.128 254.236C256.754 252.788 260.662 252.36 264.84 252.954C268.862 253.537 272.416 255.038 275.5 257.456C278.574 259.884 281.085 263.062 283.034 266.99C284.972 270.929 286.264 275.482 286.889 280.672C287.505 285.861 287.391 291.446 286.536 297.407Z" fill="#095028"/>
<path d="M310.948 272.767C309.229 264.077 306.228 256.334 301.955 249.551C297.672 242.778 292.243 237.161 285.647 232.712C280.833 229.461 275.591 227.085 269.923 225.585C269.485 226.481 268.871 227.325 268.047 227.659C266.015 228.482 264.4 226.805 264.4 226.805C264.4 226.805 263.556 228.785 261.92 229.4C260.284 230.015 258.919 228.285 258.919 228.285C258.919 228.285 257.21 232.526 254.011 232.672C250.812 232.807 249.176 227.41 249.176 227.41C249.176 227.41 247.946 230.078 245.998 230.078C244.039 230.078 241.09 226.337 241.09 226.337C241.09 226.337 241.08 226.077 241.069 225.67C240.6 225.806 240.142 225.951 239.683 226.097C232.17 228.525 225.418 232.38 219.405 237.684C213.393 242.988 208.328 249.563 204.233 257.42C200.138 265.277 197.376 274.134 195.959 283.971C194.542 293.818 194.698 303.092 196.417 311.783C198.126 320.484 201.127 328.216 205.399 334.999C209.682 341.783 215.079 347.347 221.613 351.713C228.136 356.079 235.576 358.861 243.923 360.06C252.124 361.237 260.012 360.664 267.577 358.33C275.142 355.985 281.936 352.172 287.949 346.868C293.972 341.574 299.026 334.989 303.121 327.132C307.226 319.275 309.978 310.418 311.395 300.581C312.813 290.732 312.667 281.468 310.948 272.767ZM281.198 296.234C280.333 302.205 278.885 307.55 276.832 312.271C274.779 317.002 272.268 320.982 269.298 324.202C266.318 327.432 263.015 329.777 259.378 331.225C255.741 332.684 251.917 333.121 247.884 332.548C243.706 331.944 240.079 330.433 237.005 328.005C233.931 325.587 231.42 322.409 229.471 318.481C227.522 314.542 226.241 310.02 225.605 304.904C224.969 299.788 225.084 294.254 225.938 288.284C226.793 282.324 228.251 276.936 230.315 272.133C232.378 267.329 234.9 263.318 237.87 260.087C240.85 256.867 244.154 254.523 247.79 253.064C251.416 251.616 255.324 251.188 259.502 251.782C263.524 252.365 267.078 253.866 270.162 256.283C273.236 258.711 275.747 261.889 277.696 265.818C279.634 269.757 280.926 274.31 281.551 279.5C282.167 284.688 282.053 290.273 281.198 296.234Z" fill="#0E793C"/>
<path d="M262.014 217.481L259.463 231.518H253.25L251.478 218.389L250.709 227.024L244.379 227.323L242.575 215.795C244.859 215.176 247.336 214.834 250.004 214.834C254.563 214.834 258.545 215.837 262.014 217.481Z" fill="white"/>
<path d="M249.99 391.24C249.99 391.24 249.959 391.261 249.896 391.303C249.833 391.261 249.802 391.24 249.802 391.24H249.99Z" fill="black"/>
<path d="M249.802 391.24H249.99C249.99 391.24 249.959 391.261 249.896 391.303C249.833 391.261 249.802 391.24 249.802 391.24Z" fill="black"/>
<path opacity="0.1" d="M200.389 385.499C200.389 385.499 226.064 391.209 249.802 391.24C228.003 391.23 207.996 389.469 206.568 389.469C205.151 389.469 127.426 414.665 121.747 415.374C119.371 415.666 109.107 403.755 98.124 389.584C102.594 392.668 120.413 404.902 122.528 404.902C124.947 404.901 200.389 385.499 200.389 385.499Z" fill="black"/>
<path opacity="0.1" d="M402.104 389.281C391.027 403.588 380.638 415.675 378.252 415.373C372.573 414.664 294.838 389.468 293.421 389.468C291.994 389.468 271.882 391.239 249.99 391.239C273.738 391.208 299.413 385.498 299.413 385.498C299.413 385.498 374.856 404.9 377.273 404.9C379.461 404.901 398.52 391.761 402.104 389.281Z" fill="black"/>
<path d="M142.733 234.884C142.733 234.884 112.154 271.436 113.574 299.655C114.994 327.874 140.196 347.398 173.74 347.575C173.74 347.575 188.152 349.527 193.725 347.575C193.725 347.575 186.874 336.216 186.164 334.441C186.164 334.441 201.25 330.359 209.769 317.935C209.769 317.935 197.78 312.433 192.238 306.221C192.238 306.221 199.653 295.217 201.25 293.797C201.25 293.797 185.987 294.862 180.662 295.927C180.662 295.927 157.057 294.507 147.828 277.469C138.599 260.431 142.733 234.884 142.733 234.884Z" fill="#F7B750"/>
<path d="M123.678 326.306C126.652 329.929 130.277 332.952 134.117 335.585C137.98 338.193 142.12 340.383 146.459 342.06C147.535 342.498 148.656 342.821 149.747 343.217L151.394 343.785L153.079 344.231L156.449 345.111L159.876 345.737L161.588 346.051C162.162 346.131 162.742 346.176 163.319 346.24L166.782 346.599C169.095 346.771 171.422 346.748 173.739 346.833L173.811 346.836L173.862 346.843C177.126 347.303 180.461 347.567 183.763 347.616C187.061 347.657 190.388 347.508 193.507 346.731L192.981 348.03L189.056 341.529L187.138 338.243C186.508 337.113 185.887 336.085 185.306 334.771L184.913 333.882L185.902 333.562C188.135 332.839 190.386 331.889 192.538 330.842C194.696 329.785 196.783 328.588 198.777 327.263C200.782 325.95 202.63 324.427 204.367 322.807C206.101 321.175 207.586 319.325 208.94 317.396L209.368 318.844C207.714 318.086 206.14 317.275 204.566 316.415C202.999 315.553 201.456 314.645 199.947 313.677C196.942 311.725 194.033 309.56 191.55 306.842L191.08 306.327L191.452 305.736C192.83 303.55 194.239 301.402 195.708 299.276C196.448 298.216 197.191 297.16 197.987 296.125C198.814 295.088 199.538 294.075 200.735 293.09L201.3 294.675C197.871 294.875 194.431 295.127 191.008 295.443C187.585 295.749 184.156 296.089 180.801 296.666L180.718 296.68L180.673 296.679C175.802 296.531 171.11 295.505 166.614 293.834C162.139 292.143 157.937 289.668 154.411 286.428C150.897 283.177 148.113 279.182 146.2 274.838C144.29 270.484 143.186 265.825 142.714 261.132C143.39 265.801 144.668 270.382 146.667 274.623C148.686 278.85 151.533 282.668 155.045 285.723C158.557 288.776 162.658 291.122 167.04 292.676C171.407 294.217 176.084 295.127 180.65 295.179L180.523 295.192C183.962 294.537 187.402 294.126 190.847 293.761C194.295 293.421 197.739 293.147 201.199 292.923L203.884 292.75L201.765 294.509C200.979 295.161 200.151 296.223 199.403 297.2C198.641 298.203 197.915 299.249 197.193 300.296C195.759 302.398 194.368 304.549 193.024 306.71L192.926 305.605C195.235 308.104 198.05 310.189 200.979 312.062C202.451 312.993 203.962 313.87 205.497 314.702C207.03 315.528 208.606 316.326 210.17 317.03L211.254 317.518L210.599 318.477C209.174 320.564 207.569 322.526 205.728 324.234C203.887 325.933 201.938 327.513 199.846 328.866C197.764 330.232 195.596 331.457 193.36 332.535C191.112 333.608 188.847 334.555 186.427 335.322L187.023 334.113C187.459 335.113 188.118 336.271 188.717 337.347L190.6 340.619L194.471 347.12L195.082 348.146L193.945 348.419C190.543 349.237 187.116 349.366 183.727 349.287C180.332 349.172 176.981 348.845 173.621 348.307L173.744 348.317C171.384 348.188 169.019 348.166 166.668 347.947L163.151 347.516C162.566 347.44 161.978 347.382 161.395 347.29L159.658 346.939L156.187 346.237L152.777 345.279L151.075 344.794L149.412 344.186C148.308 343.769 147.184 343.405 146.106 342.926C141.758 341.091 137.638 338.747 133.824 335.999C130.023 333.242 126.495 330.057 123.678 326.306Z" fill="#18181B"/>
<path d="M122.529 266.049C122.529 266.049 108.912 279.353 108.432 288.947C108.259 292.412 113.526 285.409 113.526 285.409C113.526 285.409 109.645 297.264 110.338 300.902C111.031 304.54 113.585 295.528 113.585 295.528L122.529 266.049Z" fill="#F7B750"/>
<path d="M356.893 232.988C356.893 232.988 379.396 274.996 372.265 302.337C365.133 329.677 336.486 343.665 303.608 337.014C303.608 337.014 289.1 335.993 284.041 332.948C284.041 332.948 293.06 323.221 294.116 321.627C294.116 321.627 280.176 314.561 274.363 300.664C274.363 300.664 287.221 297.716 293.911 292.762C293.911 292.762 288.89 280.48 287.615 278.765C287.615 278.765 302.343 282.913 307.339 285.039C307.339 285.039 330.739 288.451 343.242 273.647C355.744 258.842 356.893 232.988 356.893 232.988Z" fill="#F7B750"/>
<path d="M363.152 320.224C359.84 324.528 355.553 328.022 350.94 330.889C346.302 333.746 341.223 335.877 335.953 337.308C330.671 338.699 325.201 339.373 319.737 339.374C314.272 339.395 308.811 338.81 303.455 337.74L303.576 337.755C300.176 337.598 296.829 337.236 293.482 336.658C290.148 336.046 286.819 335.222 283.655 333.729L282.598 333.23L283.405 332.35L288.517 326.772L291.026 323.951C291.831 323.019 292.712 322.02 293.342 321.129L293.68 322.434C291.464 321.193 289.44 319.805 287.457 318.296C285.487 316.786 283.604 315.157 281.851 313.386C280.095 311.62 278.465 309.714 277.032 307.654C275.591 305.602 274.367 303.379 273.441 301.023L273.018 299.945L274.155 299.692C275.83 299.32 277.535 298.86 279.203 298.363C280.876 297.861 282.533 297.31 284.164 296.698C287.413 295.46 290.593 293.991 293.362 292.014L293.042 293.076C292.166 290.687 291.242 288.298 290.266 285.948C289.776 284.774 289.272 283.606 288.733 282.466C288.463 281.897 288.186 281.334 287.892 280.792C287.603 280.26 287.275 279.712 286.967 279.352L285.086 277.154L287.843 277.915C291.186 278.838 294.502 279.807 297.808 280.841C301.107 281.899 304.391 283.001 307.625 284.342L307.503 284.304C311.983 285.186 316.75 285.247 321.339 284.624C325.942 283.986 330.449 282.554 334.501 280.259C338.566 277.988 342.13 274.827 344.965 271.096C347.815 267.369 349.954 263.114 351.572 258.687C350.149 263.18 348.165 267.545 345.378 271.402C342.622 275.269 339.084 278.616 334.977 281.079C330.873 283.553 326.242 285.092 321.52 285.845C316.778 286.569 311.974 286.618 307.175 285.768L307.131 285.76L307.053 285.729C303.885 284.482 300.597 283.451 297.308 282.455C294.021 281.449 290.704 280.502 287.388 279.609L288.264 278.172C288.792 278.786 289.109 279.358 289.441 279.944C289.762 280.528 290.055 281.113 290.338 281.701C290.903 282.877 291.423 284.061 291.928 285.25C292.934 287.63 293.876 290.02 294.78 292.441L295.025 293.095L294.46 293.503C291.476 295.659 288.187 297.187 284.848 298.487C283.173 299.128 281.478 299.703 279.769 300.228C278.053 300.749 276.347 301.224 274.573 301.629L275.287 300.299C277.042 304.68 279.873 308.62 283.225 312.031C284.899 313.743 286.71 315.329 288.608 316.803C290.502 318.266 292.513 319.655 294.554 320.814L295.458 321.328L294.892 322.119C294.056 323.288 293.239 324.168 292.392 325.146L289.846 327.973L284.68 333.54L284.43 332.161C287.326 333.557 290.553 334.379 293.79 335.01C297.033 335.634 300.352 336.054 303.641 336.267L303.714 336.272L303.761 336.282C309.014 337.42 314.372 338.081 319.744 338.147C325.117 338.244 330.493 337.633 335.724 336.397C340.945 335.126 346.014 333.157 350.681 330.45C353.015 329.099 355.242 327.562 357.349 325.871C359.443 324.173 361.448 322.333 363.152 320.224Z" fill="#18181B"/>
<path d="M373.61 287.907C373.61 287.907 376.686 299.014 374.797 305.276C372.907 311.538 372.266 302.336 372.266 302.336C372.266 302.336 371.537 314.107 370.178 314.676C368.82 315.245 369.647 309.801 369.647 309.801L373.61 287.907Z" fill="#F7B750"/>
<g opacity="0.1">
<path d="M97.128 349.691C97.59 357.661 114.223 358.7 117.226 350.384C120.229 342.067 96.543 339.604 97.128 349.691Z" fill="black"/>
<path d="M350.915 392.274C348.938 398.63 360.218 403.71 364.707 397.972C369.196 392.234 353.417 384.23 350.915 392.274Z" fill="black"/>
<path d="M274.096 377.85C273.34 380.58 276.566 381.98 278.054 379.351C279.541 376.722 275.052 374.395 274.096 377.85Z" fill="black"/>
<path d="M347.924 318.167C350.697 323.98 363.438 319.689 363.148 312.562C362.858 305.435 344.414 310.811 347.924 318.167Z" fill="black"/>
<path d="M128.302 349.113C130.577 351.574 124.584 355.064 122.866 352.597C121.148 350.131 126.47 347.131 128.302 349.113Z" fill="black"/>
<path d="M190.154 152.524C187.621 154.685 185.03 150.117 187.508 148.417C189.985 146.717 192.193 150.784 190.154 152.524Z" fill="black"/>
<path d="M361.089 299.379C363.364 301.84 357.371 305.329 355.653 302.863C353.935 300.398 359.257 297.398 361.089 299.379Z" fill="black"/>
<path d="M120.536 335C126.959 333.867 126.47 344.476 120.536 343.892C114.602 343.308 114.772 336.018 120.536 335Z" fill="black"/>
<path d="M134.722 281.191C137.761 280.655 137.53 285.675 134.722 285.398C131.914 285.122 131.995 281.672 134.722 281.191Z" fill="black"/>
<path d="M198.147 256.6C201.186 256.064 200.955 261.084 198.147 260.807C195.339 260.531 195.419 257.082 198.147 256.6Z" fill="black"/>
<path d="M324.1 156.114C327.139 155.578 326.908 160.598 324.1 160.321C321.292 160.045 321.372 156.595 324.1 156.114Z" fill="black"/>
<path d="M137.184 270.413C140.734 266.97 145.863 276.265 141.746 278.045C137.63 279.826 133.998 273.503 137.184 270.413Z" fill="black"/>
<path d="M347.396 224.062C352.313 223.533 350.637 234.015 346.296 232.885C341.955 231.755 342.983 224.537 347.396 224.062Z" fill="black"/>
<path d="M291.101 380.026C294.091 383.965 284.247 387.937 282.975 383.636C281.703 379.335 288.417 376.491 291.101 380.026Z" fill="black"/>
<path d="M184.2 134.591C190.623 133.458 190.134 144.067 184.2 143.483C178.266 142.899 178.436 135.609 184.2 134.591Z" fill="black"/>
</g>
<path d="M235.558 403.154L239.458 399.976L244.514 401.565V404.02L235.558 403.154Z" fill="#0E793C"/>
<path d="M261.714 403.007L260.724 401.686L264.442 402.043L263.827 403.211L261.714 403.007Z" fill="#0E793C"/>
<path d="M254.625 406.331C254.625 406.331 256.792 404.309 257.225 404.02C257.658 403.731 262.715 403.876 262.642 405.176C262.569 406.476 262.28 409.509 261.702 409.509C261.124 409.509 257.08 409.509 257.08 409.509L254.625 406.331Z" fill="#0E793C"/>
<path d="M250.291 399.109L252.873 397.918L255.473 397.647L254.932 399.84L254.363 400.409L251.357 400.193L250.291 399.109Z" fill="#0E793C"/>
<path d="M248.025 401.249H248.81L249.325 402.197H247.348C247.348 402.197 246.834 402.062 247.159 401.872C247.484 401.682 248.025 401.249 248.025 401.249Z" fill="#0E793C"/>
<path d="M126.799 418.899V385.223H60.803V358.327L136.518 261.142H157.085V358.101H176.975V385.223H157.085V418.899H126.799ZM91.088 358.102H130.188V307.024L91.088 358.102Z" fill="#095028"/>
<path d="M121.198 418.899V385.223H55.202V358.327L130.917 261.142H151.484V358.101H171.374V385.223H151.484V418.899H121.198ZM85.488 358.102H124.588V307.024L85.488 358.102Z" fill="#0E793C"/>
<path d="M394.623 418.899V385.223H328.627V358.327L404.342 261.142H424.909V358.101H444.798V385.223H424.909V418.899H394.623ZM358.914 358.102H398.014V307.024L358.914 358.102Z" fill="#095028"/>
<path d="M389.022 418.899V385.223H323.026V358.327L398.741 261.142H419.308V358.101H439.197V385.223H419.308V418.899H389.022ZM353.313 358.102H392.413V307.024L353.313 358.102Z" fill="#0E793C"/>
<path d="M232.79 79.8209V83.4509H218V62.1509H232.52V65.7809H222.14V70.9109H231.111V74.2709H222.14V79.8209H232.79Z" fill="#18181B"/>
<path d="M236.031 83.4509V62.1509H245.451C246.43 62.1509 247.336 62.3559 248.166 62.7659C248.995 63.1759 249.711 63.7159 250.311 64.3849C250.912 65.0559 251.381 65.8159 251.721 66.6649C252.061 67.5159 252.231 68.3699 252.231 69.2299C252.231 70.6099 251.886 71.8649 251.196 72.9949C250.507 74.1249 249.571 74.9398 248.391 75.4398L253.251 83.4499H248.601L244.251 76.3099H240.171V83.4499H236.031V83.4509ZM240.17 72.6819H245.359C245.739 72.6819 246.094 72.5909 246.424 72.4109C246.754 72.2309 247.039 71.9859 247.279 71.6759C247.518 71.3659 247.709 71.0009 247.848 70.5809C247.988 70.1609 248.058 69.7109 248.058 69.2309C248.058 68.7309 247.978 68.2709 247.818 67.8509C247.658 67.4309 247.443 67.0659 247.173 66.7549C246.903 66.4449 246.593 66.2049 246.243 66.0349C245.893 65.8649 245.538 65.7799 245.178 65.7799H240.168V72.6819H240.17Z" fill="#18181B"/>
<path d="M255.981 83.4509V62.1509H265.401C266.381 62.1509 267.286 62.3559 268.116 62.7659C268.945 63.1759 269.661 63.7159 270.261 64.3849C270.862 65.0559 271.331 65.8159 271.671 66.6649C272.011 67.5159 272.181 68.3699 272.181 69.2299C272.181 70.6099 271.836 71.8649 271.146 72.9949C270.456 74.1249 269.521 74.9398 268.341 75.4398L273.201 83.4499H268.551L264.201 76.3099H260.121V83.4499H255.981V83.4509ZM260.12 72.6819H265.31C265.69 72.6819 266.045 72.5909 266.375 72.4109C266.705 72.2309 266.99 71.9859 267.23 71.6759C267.469 71.3659 267.66 71.0009 267.799 70.5809C267.939 70.1609 268.009 69.7109 268.009 69.2309C268.009 68.7309 267.929 68.2709 267.769 67.8509C267.609 67.4309 267.394 67.0659 267.124 66.7549C266.854 66.4449 266.544 66.2049 266.194 66.0349C265.843 65.8649 265.489 65.7799 265.129 65.7799H260.119L260.12 72.6819Z" fill="#18181B"/>
<path d="M285.019 83.601C283.46 83.601 282.044 83.296 280.775 82.686C279.505 82.076 278.416 81.266 277.505 80.255C276.595 79.245 275.89 78.091 275.39 76.79C274.89 75.49 274.64 74.16 274.64 72.8C274.64 71.38 274.905 70.021 275.435 68.72C275.965 67.42 276.695 66.271 277.624 65.271C278.554 64.271 279.659 63.476 280.94 62.885C282.219 62.296 283.61 62 285.11 62C286.649 62 288.053 62.315 289.325 62.945C290.595 63.575 291.678 64.4 292.579 65.42C293.479 66.44 294.179 67.601 294.679 68.9C295.179 70.199 295.429 71.52 295.429 72.86C295.429 74.28 295.169 75.634 294.65 76.924C294.13 78.214 293.41 79.355 292.49 80.344C291.57 81.334 290.47 82.125 289.191 82.714C287.91 83.307 286.519 83.601 285.019 83.601ZM278.839 72.801C278.839 73.722 278.98 74.612 279.259 75.471C279.54 76.331 279.945 77.091 280.474 77.751C281.005 78.411 281.656 78.941 282.425 79.341C283.195 79.741 284.07 79.942 285.05 79.942C286.05 79.942 286.935 79.737 287.704 79.327C288.474 78.917 289.124 78.372 289.655 77.692C290.184 77.012 290.585 76.247 290.854 75.397C291.124 74.547 291.258 73.682 291.258 72.801C291.258 71.882 291.113 70.991 290.824 70.131C290.533 69.272 290.123 68.511 289.594 67.852C289.063 67.192 288.414 66.667 287.643 66.277C286.873 65.886 286.008 65.692 285.049 65.692C284.049 65.692 283.158 65.897 282.379 66.307C281.598 66.717 280.949 67.256 280.428 67.926C279.908 68.597 279.514 69.357 279.244 70.206C278.974 71.057 278.839 71.921 278.839 72.801Z" fill="#18181B"/>
<path d="M418.851 104.345C416.576 126.091 397.093 141.885 375.346 139.611C366.557 138.692 358.745 134.961 352.695 129.39L332.886 132.298L342.797 115.173C340.392 109.322 339.379 102.811 340.08 96.1071C342.354 74.3601 361.838 58.5671 383.585 60.8411C405.332 63.1151 421.126 82.5981 418.851 104.345Z" fill="white"/>
<path d="M418.851 104.345C418.024 111.574 415.381 118.659 410.859 124.417C409.82 125.925 408.483 127.185 407.27 128.549C405.894 129.747 404.61 131.062 403.091 132.087C400.195 134.318 396.941 136.066 393.539 137.405C390.154 138.83 386.511 139.51 382.879 139.947C381.047 140.046 379.213 140.212 377.378 140.052C375.54 140.01 373.709 139.814 371.898 139.482C364.652 138.17 357.79 134.778 352.309 129.81L352.777 129.955L332.987 132.993L331.551 133.214L332.278 131.948L342.131 114.789L342.085 115.466C337.285 104.164 338.367 90.7051 344.524 80.1751C347.593 74.9021 351.873 70.3581 356.925 66.9701C361.974 63.5711 367.829 61.4411 373.823 60.6291C379.823 59.8331 385.998 60.3791 391.728 62.2831C397.451 64.2101 402.698 67.4511 406.998 71.6461C415.743 79.9561 420.137 92.4231 418.851 104.345ZM418.851 104.345C420.054 92.4121 415.574 80.0211 406.829 71.8231C402.487 67.7231 397.231 64.6161 391.559 62.8141C385.878 61.0361 379.801 60.6121 373.948 61.4941C368.1 62.3921 362.437 64.5691 357.595 67.9541C352.765 71.3461 348.691 75.7821 345.748 80.8761C342.747 85.9591 341.193 91.7841 340.722 97.6301C340.351 103.496 341.309 109.433 343.509 114.88L343.652 115.234L343.463 115.558L333.493 132.649L332.784 131.604L352.612 128.827L352.886 128.788L353.081 128.971C358.322 133.891 364.955 137.326 372.041 138.738C373.811 139.095 375.606 139.319 377.413 139.391C379.217 139.582 381.023 139.448 382.831 139.383C386.417 139.014 390.031 138.407 393.407 137.055C396.796 135.786 400.072 134.122 402.958 131.907C404.477 130.898 405.761 129.6 407.14 128.416C408.356 127.067 409.697 125.822 410.742 124.326C415.285 118.621 417.974 111.569 418.851 104.345Z" fill="#18181B"/>
<path d="M354.127 94.0281C354.63 95.2581 355.364 96.356 356.227 97.354C356.1 100.065 357.993 102.576 359.861 104.346C362.059 106.427 364.619 108.091 367.349 109.387C371.858 111.527 376.754 112.775 381.678 113.621C381.405 117.518 379.968 121.379 378.533 125.005C378.497 125.097 378.643 125.14 378.68 125.049C380.13 121.462 381.686 117.605 382.139 113.7C383.109 113.862 384.079 114.014 385.047 114.149C386.531 114.356 388.06 114.519 389.602 114.604C392.262 114.92 394.96 115.091 397.621 114.973C400.733 114.835 403.897 114.095 406.277 111.973C408.552 109.945 409.433 107.045 408.758 104.08C408.469 102.81 407.962 101.593 407.334 100.431C406.959 99.6131 406.525 98.8281 406.057 98.1071C404.46 95.6471 402.325 93.5941 399.987 91.8431C399.371 91.3811 398.738 90.9371 398.093 90.5081C398.009 90.4271 397.927 90.3421 397.843 90.2621C395.551 88.0991 392.845 86.414 390.023 85.033C384.086 82.127 377.524 80.5421 370.918 80.3881C367.594 80.3101 364.242 80.5871 360.984 81.2531C358.126 81.8371 355.318 83.0071 354.021 85.8031C353.101 87.7851 353.048 90.0441 353.608 92.1331C353.705 92.7691 353.872 93.4041 354.127 94.0281ZM387.267 113.202C385.591 112.961 383.914 112.658 382.249 112.291C382.258 112.089 382.267 111.886 382.269 111.684C382.643 111.742 383.019 111.792 383.395 111.831C383.729 111.866 384.076 111.886 384.426 111.897C387.535 112.411 390.691 112.624 393.845 112.485C396.656 112.361 399.457 111.953 402.185 111.259C398.253 113.387 393.243 113.663 388.95 113.358C388.387 113.317 387.827 113.26 387.267 113.202ZM377.074 84.4861C377.947 84.6531 378.816 84.8401 379.681 85.0411C377.408 85.0771 375.159 85.4131 373.043 86.1501C370.736 86.9541 368.527 88.2991 367.029 90.2631C365.855 90.5941 364.691 91.0361 363.643 91.6541C363.394 91.6781 363.144 91.6951 362.895 91.7311C361.998 91.8631 361.057 92.1021 360.172 92.4671C360.164 92.3491 360.138 92.2351 360.138 92.1151C360.126 89.3651 362.325 87.5111 364.631 86.4461C367.184 85.2661 370.115 84.7291 372.903 84.5211C374.291 84.4181 375.685 84.4131 377.074 84.4861ZM360.929 96.9411C361.192 97.2931 361.468 97.6341 361.762 97.9551C361.474 98.1901 361.213 98.4581 360.987 98.7531C360.879 98.1561 360.849 97.5501 360.929 96.9411ZM381.714 111.589C381.722 111.781 381.719 111.973 381.721 112.165C379.374 111.627 377.056 110.956 374.804 110.136C376.214 110.489 377.634 110.802 379.06 111.082C379.941 111.256 380.826 111.437 381.714 111.589ZM381.061 107.788C375.048 106.564 369.116 104.522 363.742 101.552C363.047 101.168 362.354 100.76 361.675 100.326C361.853 99.771 362.232 99.2681 362.705 98.8881C365.026 101.012 367.907 102.532 370.772 103.774C373.856 105.111 377.071 106.091 380.278 107.081C380.493 107.147 380.664 107.072 380.778 106.942C380.795 106.987 380.817 107.03 380.834 107.076C380.921 107.313 380.988 107.551 381.061 107.788ZM364.472 99.0071C364.2 98.8011 363.926 98.5791 363.656 98.3461C364.813 97.9001 366.16 98.0151 367.353 98.2531C370.141 98.8111 373.089 99.6191 375.588 101C377.709 102.172 379.369 103.896 380.4 106.05C374.865 104.342 369.147 102.547 364.472 99.0071ZM381.382 109.018C381.456 109.363 381.516 109.709 381.565 110.055C381.545 110.051 381.526 110.048 381.507 110.044C381.071 109.959 380.637 109.862 380.201 109.775C379.59 109.613 378.981 109.443 378.377 109.258C375.277 108.308 372.28 107.051 369.417 105.536C372.638 106.828 375.964 107.86 379.352 108.611C380.026 108.76 380.704 108.89 381.382 109.018ZM382.099 109.155C383.935 109.48 385.785 109.722 387.642 109.888C386.869 110.298 385.953 110.434 385.094 110.447C384.123 110.463 383.165 110.34 382.213 110.173C382.185 109.833 382.15 109.494 382.099 109.155ZM369.216 106.764C369.069 106.704 368.918 106.654 368.771 106.591C367.468 106.037 366.206 105.381 365.009 104.624C364.66 104.403 364.284 104.173 363.91 103.927C363.74 103.753 363.568 103.581 363.407 103.397C363.308 103.284 363.215 103.16 363.118 103.041C365.061 104.413 367.099 105.66 369.216 106.764ZM361.283 95.6411C361.753 94.4801 362.584 93.5691 363.597 92.8651C364.489 92.7701 365.393 92.7681 366.294 92.8311C366.481 93.4201 366.911 93.9601 367.514 94.4411C368.726 95.4081 370.025 96.2781 371.353 97.0781C376.203 100.002 381.662 101.887 387.272 102.648C388.143 103.753 388.836 104.982 389.122 106.303C389.315 107.196 389.225 108.137 388.76 108.887C386.446 108.713 384.139 108.387 381.867 107.952C381.783 107.598 381.689 107.244 381.576 106.891C380.67 104.058 378.833 101.774 376.282 100.248C373.698 98.7031 370.626 97.7621 367.701 97.1101C366.079 96.7481 364.304 96.5871 362.756 97.3201C362.72 97.3371 362.686 97.3591 362.651 97.3771C362.139 96.8421 361.676 96.2611 361.283 95.6411ZM400.045 100.742C399.596 101.13 399.035 101.353 398.439 101.494C397.074 99.0391 394.812 96.9981 392.599 95.3281C388.035 91.8831 382.45 89.8151 376.756 89.3651C374.174 89.1611 371.559 89.3181 369.014 89.8091C369.087 89.7441 369.157 89.6831 369.219 89.6271C370.138 88.8151 371.201 88.1821 372.321 87.6901C376.641 85.7931 381.76 85.9601 386.346 86.9741C386.459 87.0141 386.573 87.049 386.686 87.09C391.407 88.794 395.933 91.172 399.842 94.339C399.887 94.414 399.939 94.486 399.982 94.562C400.96 96.287 401.817 99.2091 400.045 100.742ZM367.817 91.062C370.058 90.469 372.397 90.2101 374.706 90.2371C379.977 90.2991 385.214 91.8231 389.707 94.5771C391.979 95.9701 394.05 97.6771 395.828 99.6631C396.338 100.232 396.88 100.923 397.338 101.675C396.875 101.724 396.416 101.752 395.993 101.786C394.508 101.906 393.016 101.942 391.527 101.894C390.394 101.858 389.263 101.759 388.136 101.626C388.105 101.588 388.074 101.547 388.043 101.51C384.248 96.9281 378.498 94.5091 372.918 92.9001C371.137 92.3871 369.3 91.9421 367.447 91.7211C367.531 91.4991 367.66 91.277 367.817 91.062ZM369.077 93.2051C371.878 93.7571 374.652 94.6171 377.295 95.6961C379.828 96.7291 382.294 98.0491 384.412 99.7941C384.977 100.26 385.551 100.779 386.101 101.336C382.182 100.673 378.355 99.4471 374.802 97.6701C373.53 97.0341 372.292 96.3311 371.094 95.5631C370.438 95.1421 369.795 94.7021 369.166 94.2441C368.651 93.8691 368.027 93.4791 367.623 92.9671C368.114 93.0341 368.601 93.1111 369.077 93.2051ZM397.522 107.206C396.022 108.893 393.332 109.072 391.232 109.015C390.927 109.007 390.622 108.982 390.317 108.968C391.151 106.938 390.265 104.687 389.049 102.86C389.055 102.86 389.06 102.862 389.066 102.862C391.94 103.126 395.008 103.188 397.883 102.702C398.56 104.216 398.724 105.854 397.522 107.206ZM360.696 94.5371C360.578 94.2661 360.48 93.9911 360.398 93.7091C360.808 93.5231 361.228 93.3691 361.657 93.2441C361.512 93.4001 361.362 93.5511 361.229 93.7211C361.024 93.9851 360.851 94.2581 360.696 94.5371ZM405.063 109.139C404.401 109.447 403.665 109.639 402.982 109.834C400.327 110.592 397.593 111.066 394.839 111.252C392.642 111.4 390.44 111.368 388.251 111.181C388.787 110.906 389.264 110.531 389.66 110.042C389.693 110.044 389.726 110.048 389.759 110.049C392.233 110.187 395.075 110.234 397.237 108.821C398.293 108.131 399.084 107.093 399.343 105.843C399.58 104.699 399.36 103.544 398.922 102.479C400.031 102.178 401.051 101.58 401.613 100.539C402.164 99.5201 402.236 98.3471 402.076 97.2181C402.017 96.8051 401.917 96.4061 401.799 96.0131C403.547 97.6031 405.259 99.3921 406.352 101.458C407.038 102.756 407.424 104.248 407.094 105.708C406.811 106.961 406.111 108.068 405.225 108.984C405.173 109.04 405.116 109.087 405.063 109.139ZM359.602 98.854C358.868 98.204 358.166 97.5141 357.523 96.7831C357.755 95.6621 358.511 94.8011 359.454 94.1961C359.636 94.7481 359.886 95.2791 360.178 95.7911C359.85 96.8991 359.835 98.0701 360.07 99.2181C359.911 99.1001 359.757 98.977 359.602 98.854ZM355.09 93.0041C354.594 91.4831 354.544 89.8571 355.27 88.3171C356.394 85.9351 358.791 84.3831 361.275 83.7301C364.307 82.9321 367.521 83.2161 370.601 83.5351C370.762 83.5521 370.923 83.5741 371.084 83.5911C368.727 83.8981 366.427 84.4931 364.287 85.4521C361.867 86.5361 359.587 88.4071 359.163 91.1671C359.07 91.7731 359.092 92.3681 359.173 92.9521C358.047 93.5881 357.107 94.4741 356.608 95.6511C355.992 94.8181 355.474 93.9361 355.09 93.0041ZM390.586 86.5461C388.008 85.4841 385.339 84.6531 382.645 84.1101C381.104 83.7991 379.51 83.5721 377.895 83.4471C376.18 83.1011 374.458 82.8101 372.742 82.5841C366.923 81.8181 359.461 80.9641 355.273 86.0691C355.135 86.2371 355.022 86.4161 354.9 86.5911C355.119 86.0451 355.4 85.524 355.765 85.062C356.649 83.943 357.943 83.2531 359.279 82.8211C362.149 81.8931 365.316 81.6001 368.316 81.4991C374.42 81.2941 380.548 82.337 386.237 84.561C387.718 85.139 389.174 85.8021 390.586 86.5461ZM399.475 113.71C399.306 113.734 399.135 113.747 398.966 113.767C400.586 113.313 402.147 112.669 403.606 111.768C404.352 111.308 405.064 110.757 405.711 110.141C406.131 109.933 406.528 109.688 406.875 109.374C406.943 109.312 406.991 109.236 407.055 109.17C406.935 109.399 406.805 109.626 406.651 109.848C405.012 112.209 402.227 113.324 399.475 113.71ZM358.492 100.808C358.116 100.184 357.793 99.4941 357.606 98.7761C358.354 99.4601 359.157 100.081 359.976 100.655C360.03 100.7 360.084 100.747 360.139 100.791C360.151 100.801 360.164 100.811 360.177 100.821C360.113 102.051 360.767 103.152 361.678 103.993C362.839 105.065 364.199 105.948 365.581 106.705C366.085 107.068 366.6 107.414 367.128 107.736C367.766 108.126 368.425 108.482 369.089 108.825C367.508 108.142 365.969 107.362 364.515 106.432C362.238 104.977 359.904 103.153 358.492 100.808Z" fill="#18181B"/>
</g>
<defs>
<clipPath id="clip0_201_206">
<rect width="500" height="500" fill="white"/>
</clipPath>
</defs>
</svg>
